<svg xmlns="http://www.w3.org/2000/svg" viewBox="-0.00755065 -0.00668173 205 103">
  <path d="M38.057 76.605 23.56 81.01v.868c0 5.253-1.694 6.855-4.532 7.211-2.837.356-4.531-.98-4.531-6.232V68.503c0-5.252 1.694-6.877 4.531-7.21 2.838-.357 4.532.845 4.532 6.098v3.115L38.057 66.1v-.78c.374-12.462-6.93-19.317-19.029-17.782C6.908 49.074-.264 57.198 0 69.817v13.13c-.264 11.93 6.401 21.522 19.028 19.875 12.54-1.625 19.183-12.063 19.029-24.37v-1.847ZM65.224 71.931c-3.63 1.135-5.433 1.691-9.063 2.737v19.274c-5.808 1.67-8.69 2.448-14.497 3.828V44.312c5.808-1.358 8.69-2.137 14.497-3.829v20.142c3.63-1.046 5.434-1.602 9.063-2.737V37.746c5.808-1.825 8.69-2.804 14.497-4.807v53.458c-5.808 2.003-8.69 2.982-14.497 4.807V71.931ZM102.664 79.097c-11.746 4.451-19.446-1.624-19.028-14.221V51.745c-.132-13.109 7.084-23.413 19.028-27.931 11.747-4.451 19.447 1.624 19.029 14.243v13.131c.132 13.087-7.084 23.391-19.029 27.91Zm4.532-36.477c0-5.252-1.694-6.098-4.532-5.074-2.837 1.023-4.531 3.115-4.531 8.368v14.355c0 5.252 1.694 6.098 4.531 5.074 2.838-1.024 4.532-3.116 4.532-8.368V42.62ZM185.972 55.484c-12.099 1.535-19.381-5.297-19.029-17.783v-13.13c-.154-12.33 6.49-22.768 19.029-24.393C198.598-1.469 205.264 8.123 205 20.052v13.132c.264 12.619-6.907 20.764-19.028 22.3Zm4.531-35.32c0-5.253-1.694-6.566-4.531-6.232-2.838.356-4.532 2.07-4.532 7.345v14.355c0 5.252 1.694 6.454 4.532 6.098 2.837-.356 4.531-1.959 4.531-7.211V20.164ZM148.861 42.998c0 5.253-1.694 7.167-4.532 8.035-2.838.868-4.532-.067-4.532-5.32V31.359c0-5.252 1.694-7.255 4.532-8.123 2.838-.868 4.532.134 4.532 5.386v3.895l14.496-4.385v-2.715c.374-12.24-6.907-19.74-19.028-15.913-12.143 3.85-19.16 14.4-19.028 27.286v13.13c-.418 12.62 7.215 18.585 19.028 14.868 11.967-3.784 19.182-13.22 19.028-26.173l-14.496 4.384Z" fill="#fff"/>
</svg>